<svg preserveAspectRatio="none" width="100%" height="100%" overflow="visible" style="display: block;" viewBox="0 0 20 20" fill="none" xmlns="http://www.w3.org/2000/svg">
<g id="AppleIcon">
<path id="Vector" d="M15.5917 16.25C14.9 17.2833 14.1667 18.2917 13.05 18.3083C11.9333 18.3333 11.575 17.65 10.3083 17.65C9.03333 17.65 8.64167 18.2917 7.58333 18.3333C6.49167 18.375 5.66667 17.2333 4.96667 16.225C3.54167 14.1667 2.45 10.375 3.91667 7.825C4.64167 6.55833 5.94167 5.75833 7.35 5.73333C8.41667 5.71667 9.43333 6.45833 10.0917 6.45833C10.7417 6.45833 11.975 5.56667 13.2583 5.7C13.8 5.725 15.3167 5.91667 16.2917 7.35L16.2167 7.4C16.0333 7.51667 14.425 8.44167 14.4417 10.5083C14.4667 12.9833 16.6083 13.8 16.6333 13.8083C16.6083 13.8667 16.2917 14.975 15.5083 16.1667M10.8333 2.91667C11.4417 2.225 12.45 1.7 13.2833 1.66667C13.3917 2.64167 13 3.625 12.4167 4.325C11.8417 5.03333 10.8917 5.58333 9.95833 5.50833C9.83333 4.55 10.3 3.55 10.8333 2.91667Z" fill="var(--fill-0, white)"/>
</g>
</svg>
