<svg preserveAspectRatio="none" width="100%" height="100%" overflow="visible" style="display: block;" viewBox="0 0 104 104" fill="none" xmlns="http://www.w3.org/2000/svg">
<g id="CheckCircle" clip-path="url(#clip0_398_254)">
<g id="Vector">
</g>
<path id="Vector_2" d="M52 9.75C43.6437 9.75 35.4751 12.2279 28.5272 16.8704C21.5792 21.5129 16.1639 28.1114 12.9661 35.8316C9.76829 43.5518 8.9316 52.0469 10.5618 60.2426C12.192 68.4383 16.216 75.9665 22.1247 81.8753C28.0335 87.784 35.5617 91.808 43.7574 93.4382C51.9531 95.0684 60.4482 94.2317 68.1684 91.0339C75.8886 87.8361 82.4871 82.4208 87.1296 75.4728C91.7721 68.5249 94.25 60.3563 94.25 52C94.2382 40.7982 89.783 30.0587 81.8622 22.1378C73.9413 14.217 63.2018 9.76183 52 9.75ZM70.5494 44.5494L47.7994 67.2994C47.4975 67.6015 47.1391 67.8413 46.7446 68.0048C46.35 68.1684 45.9271 68.2526 45.5 68.2526C45.0729 68.2526 44.65 68.1684 44.2554 68.0048C43.8609 67.8413 43.5025 67.6015 43.2006 67.2994L33.4506 57.5494C32.8408 56.9395 32.4982 56.1124 32.4982 55.25C32.4982 54.3876 32.8408 53.5605 33.4506 52.9506C34.0605 52.3408 34.8876 51.9982 35.75 51.9982C36.6124 51.9982 37.4395 52.3408 38.0494 52.9506L45.5 60.4053L65.9506 39.9506C66.2526 39.6487 66.6111 39.4091 67.0056 39.2457C67.4001 39.0823 67.823 38.9982 68.25 38.9982C68.677 38.9982 69.0999 39.0823 69.4944 39.2457C69.8889 39.4091 70.2474 39.6487 70.5494 39.9506C70.8513 40.2526 71.0909 40.6111 71.2543 41.0056C71.4177 41.4001 71.5018 41.823 71.5018 42.25C71.5018 42.677 71.4177 43.0999 71.2543 43.4944C71.0909 43.8889 70.8513 44.2474 70.5494 44.5494Z" fill="var(--fill-0, #7ED44E)"/>
</g>
<defs>
<clipPath id="clip0_398_254">
<rect width="104" height="104" fill="white"/>
</clipPath>
</defs>
</svg>
