<svg preserveAspectRatio="none" width="100%" height="100%" overflow="visible" style="display: block;" viewBox="0 0 28 28" fill="none" xmlns="http://www.w3.org/2000/svg">
<g id="CheckCircle">
<path id="Vector" d="M19.3036 10.4464C19.426 10.5683 19.523 10.7132 19.5893 10.8728C19.6555 11.0323 19.6896 11.2033 19.6896 11.3761C19.6896 11.5488 19.6555 11.7199 19.5893 11.8794C19.523 12.039 19.426 12.1838 19.3036 12.3058L13.1786 18.4308C13.0567 18.5531 12.9118 18.6502 12.7522 18.7165C12.5927 18.7827 12.4216 18.8168 12.2489 18.8168C12.0762 18.8168 11.9051 18.7827 11.7456 18.7165C11.586 18.6502 11.4412 18.5531 11.3192 18.4308L8.69422 15.8058C8.57213 15.6837 8.47528 15.5388 8.40921 15.3792C8.34314 15.2197 8.30913 15.0488 8.30913 14.8761C8.30913 14.7034 8.34314 14.5325 8.40921 14.3729C8.47528 14.2134 8.57213 14.0685 8.69422 13.9464C8.81631 13.8243 8.96125 13.7275 9.12076 13.6614C9.28028 13.5953 9.45125 13.5613 9.62391 13.5613C9.79656 13.5613 9.96753 13.5953 10.127 13.6614C10.2866 13.7275 10.4315 13.8243 10.5536 13.9464L12.25 15.6406L17.4464 10.4431C17.5685 10.3213 17.7134 10.2248 17.8729 10.159C18.0323 10.0932 18.2032 10.0595 18.3757 10.0598C18.5482 10.0601 18.7189 10.0944 18.8781 10.1608C19.0373 10.2271 19.1819 10.3242 19.3036 10.4464ZM25.8125 14C25.8125 16.3363 25.1197 18.6201 23.8217 20.5627C22.5238 22.5052 20.6789 24.0193 18.5204 24.9133C16.362 25.8074 13.9869 26.0413 11.6955 25.5855C9.40409 25.1297 7.29931 24.0047 5.6473 22.3527C3.99529 20.7007 2.87026 18.5959 2.41447 16.3045C1.95869 14.0131 2.19261 11.638 3.08667 9.47955C3.98073 7.3211 5.49477 5.47624 7.43733 4.17827C9.37988 2.88029 11.6637 2.1875 14 2.1875C17.1318 2.19097 20.1343 3.43662 22.3489 5.65114C24.5634 7.86566 25.809 10.8682 25.8125 14ZM23.1875 14C23.1875 12.1829 22.6487 10.4066 21.6391 8.8957C20.6296 7.38482 19.1947 6.20724 17.5159 5.51186C15.8371 4.81648 13.9898 4.63453 12.2076 4.98904C10.4254 5.34354 8.78835 6.21856 7.50346 7.50346C6.21856 8.78835 5.34354 10.4254 4.98903 12.2076C4.63453 13.9898 4.81648 15.8371 5.51186 17.5159C6.20724 19.1947 7.38482 20.6296 8.8957 21.6391C10.4066 22.6487 12.1829 23.1875 14 23.1875C16.4359 23.1849 18.7712 22.2161 20.4937 20.4937C22.2161 18.7712 23.1849 16.4359 23.1875 14Z" fill="var(--fill-0, white)"/>
</g>
</svg>
