<svg preserveAspectRatio="none" width="100%" height="100%" overflow="visible" style="display: block;" viewBox="0 0 28 28" fill="none" xmlns="http://www.w3.org/2000/svg">
<g id="SoccerBall">
<path id="Vector" d="M14 2.1875C11.6637 2.1875 9.37988 2.88029 7.43733 4.17827C5.49477 5.47624 3.98073 7.3211 3.08667 9.47955C2.19261 11.638 1.95869 14.0131 2.41447 16.3045C2.87026 18.5959 3.99529 20.7007 5.6473 22.3527C7.29931 24.0047 9.40409 25.1297 11.6955 25.5855C13.9869 26.0413 16.362 25.8074 18.5204 24.9133C20.6789 24.0193 22.5238 22.5052 23.8217 20.5627C25.1197 18.6201 25.8125 16.3363 25.8125 14C25.809 10.8682 24.5634 7.86566 22.3489 5.65114C20.1343 3.43662 17.1318 2.19097 14 2.1875ZM21.8619 18.7491H19.2369L18.1672 17.2812L19.4031 13.6784L21.1258 13.125L23.1602 14.6847C23.0547 16.123 22.6098 17.5159 21.8619 18.7491ZM4.83984 14.6792L6.87422 13.125L8.59687 13.6839L9.83281 17.2812L8.76641 18.7491H6.14141C5.39153 17.5146 4.94545 16.1197 4.83984 14.6792ZM12.2336 16.1875L11.1902 13.1502L14 11.2175L16.8098 13.1502L15.7664 16.1875H12.2336ZM21.0558 8.12328L20.3142 10.6225L18.585 11.1847L15.3125 8.93484V7.15969L17.6334 5.56391C18.959 6.13713 20.1313 7.01382 21.0558 8.12328ZM10.3666 5.56391L12.6875 7.15969V8.93484L9.415 11.1847L7.68578 10.6225L6.94422 8.12328C7.86874 7.01382 9.04103 6.13713 10.3666 5.56391ZM11.8519 22.9316L10.9091 20.2661L11.9645 18.8125H16.0355L17.0909 20.2661L16.1481 22.9316C14.7364 23.2728 13.2636 23.2728 11.8519 22.9316Z" fill="var(--fill-0, white)"/>
</g>
</svg>
