<svg preserveAspectRatio="none" width="100%" height="100%" overflow="visible" style="display: block;" viewBox="0 0 24 28" fill="none" xmlns="http://www.w3.org/2000/svg">
<g id="ChartBar">
<path id="Vector" d="M21 21.4375H20.625V4.375C20.625 4.0269 20.5065 3.69306 20.2955 3.44692C20.0845 3.20078 19.7984 3.0625 19.5 3.0625H14.25C13.9516 3.0625 13.6655 3.20078 13.4545 3.44692C13.2435 3.69306 13.125 4.0269 13.125 4.375V8.3125H9C8.70163 8.3125 8.41548 8.45078 8.2045 8.69692C7.99353 8.94306 7.875 9.2769 7.875 9.625V13.5625H4.5C4.20163 13.5625 3.91548 13.7008 3.7045 13.9469C3.49353 14.1931 3.375 14.5269 3.375 14.875V21.4375H3C2.70163 21.4375 2.41548 21.5758 2.2045 21.8219C1.99353 22.0681 1.875 22.4019 1.875 22.75C1.875 23.0981 1.99353 23.4319 2.2045 23.6781C2.41548 23.9242 2.70163 24.0625 3 24.0625H21C21.2984 24.0625 21.5845 23.9242 21.7955 23.6781C22.0065 23.4319 22.125 23.0981 22.125 22.75C22.125 22.4019 22.0065 22.0681 21.7955 21.8219C21.5845 21.5758 21.2984 21.4375 21 21.4375ZM15.375 5.6875H18.375V21.4375H15.375V5.6875ZM10.125 10.9375H13.125V21.4375H10.125V10.9375ZM5.625 16.1875H7.875V21.4375H5.625V16.1875Z" fill="var(--fill-0, white)"/>
</g>
</svg>
