<svg preserveAspectRatio="none" width="100%" height="100%" overflow="visible" style="display: block;" viewBox="0 0 28 28" fill="none" xmlns="http://www.w3.org/2000/svg">
<g id="House">
<path id="Vector" d="M24.2966 11.5773L15.5466 2.82734C15.1363 2.41725 14.58 2.18687 14 2.18687C13.42 2.18687 12.8637 2.41725 12.4534 2.82734L3.70344 11.5773C3.49948 11.78 3.3378 12.0212 3.22778 12.2869C3.11776 12.5526 3.06158 12.8374 3.0625 13.125V23.625C3.0625 23.9731 3.20078 24.3069 3.44692 24.5531C3.69306 24.7992 4.0269 24.9375 4.375 24.9375H11.375C11.7231 24.9375 12.0569 24.7992 12.3031 24.5531C12.5492 24.3069 12.6875 23.9731 12.6875 23.625V17.9375H15.3125V23.625C15.3125 23.9731 15.4508 24.3069 15.6969 24.5531C15.9431 24.7992 16.2769 24.9375 16.625 24.9375H23.625C23.9731 24.9375 24.3069 24.7992 24.5531 24.5531C24.7992 24.3069 24.9375 23.9731 24.9375 23.625V13.125C24.9384 12.8374 24.8822 12.5526 24.7722 12.2869C24.6622 12.0212 24.5005 11.78 24.2966 11.5773ZM22.3125 22.3125H17.9375V16.625C17.9375 16.2769 17.7992 15.9431 17.5531 15.6969C17.3069 15.4508 16.9731 15.3125 16.625 15.3125H11.375C11.0269 15.3125 10.6931 15.4508 10.4469 15.6969C10.2008 15.9431 10.0625 16.2769 10.0625 16.625V22.3125H5.6875V13.3055L14 4.99297L22.3125 13.3055V22.3125Z" fill="var(--fill-0, black)"/>
</g>
</svg>
