<svg preserveAspectRatio="none" width="100%" height="100%" overflow="visible" style="display: block;" viewBox="0 0 24 24" fill="none" xmlns="http://www.w3.org/2000/svg">
<g id="TShirt" clip-path="url(#clip0_126_1691)">
<path id="Vector" d="M23.0784 5.42813L18.5709 2.77969C18.398 2.67769 18.2008 2.62425 18 2.625H15C14.7016 2.625 14.4155 2.74353 14.2045 2.95451C13.9935 3.16548 13.875 3.45163 13.875 3.75C13.875 4.24728 13.6775 4.72419 13.3258 5.07583C12.9742 5.42746 12.4973 5.625 12 5.625C11.5027 5.625 11.0258 5.42746 10.6742 5.07583C10.3225 4.72419 10.125 4.24728 10.125 3.75C10.125 3.45163 10.0065 3.16548 9.79549 2.95451C9.58452 2.74353 9.29837 2.625 9 2.625H6C5.79978 2.62487 5.60322 2.67863 5.43094 2.78063L0.921563 5.42813C0.515571 5.67048 0.215045 6.05607 0.0791793 6.50896C-0.0566862 6.96184 -0.0180421 7.44919 0.1875 7.875L1.86563 11.325C2.01525 11.6399 2.25129 11.9058 2.54625 12.0917C2.8412 12.2776 3.18291 12.3759 3.53156 12.375H4.875V19.5C4.875 19.9973 5.07254 20.4742 5.42417 20.8258C5.77581 21.1775 6.25272 21.375 6.75 21.375H17.25C17.7473 21.375 18.2242 21.1775 18.5758 20.8258C18.9275 20.4742 19.125 19.9973 19.125 19.5V12.375H20.4675C20.8155 12.3755 21.1565 12.2775 21.451 12.0921C21.7455 11.9068 21.9815 11.6418 22.1316 11.3278L23.8125 7.875C24.018 7.44919 24.0567 6.96184 23.9208 6.50896C23.785 6.05607 23.4844 5.67048 23.0784 5.42813ZM3.78469 10.125L2.35875 7.19344L4.875 5.71875V10.125H3.78469ZM16.875 19.125H7.125V4.875H8.03156C8.27599 5.73945 8.79593 6.50047 9.51237 7.04243C10.2288 7.58438 11.1026 7.87764 12.0009 7.87764C12.8993 7.87764 13.7731 7.58438 14.4895 7.04243C15.2059 6.50047 15.7259 5.73945 15.9703 4.875H16.875V19.125ZM20.2144 10.125H19.125V5.71875L21.6403 7.19625L20.2144 10.125Z" fill="var(--fill-0, #808080)" fill-opacity="0.55"/>
</g>
<defs>
<clipPath id="clip0_126_1691">
<rect width="24" height="24" fill="white"/>
</clipPath>
</defs>
</svg>
